<svg width="1878" height="523" xmlns="http://www.w3.org/2000/svg" xmlns:xlink="http://www.w3.org/1999/xlink" overflow="hidden"><defs><clipPath id="clip0"><rect x="1" y="1" width="1878" height="523"/></clipPath></defs><g clip-path="url(#clip0)" transform="translate(-1 -1)"><path d="M9.08504 71.9998 1.00003 447 191 422.675 9.08504 71.9998Z" fill="#5B9BD5" fill-rule="evenodd"/><path d="M386.535 116 190 425 547 217.855 386.535 116Z" fill="#0044BE" fill-rule="evenodd"/><path d="M6.99987 72.9999 190.299 425 388 116.836 6.99987 72.9999Z" fill="#377EFF" fill-rule="evenodd"/><path d="M195 421.781 604 524 546.32 218 195 421.781Z" fill="#9BBFFF" fill-rule="evenodd"/><path d="M381 113 939.819 473 1010 260.314 381 113Z" fill="#0056F0" fill-rule="evenodd"/><path d="M767 204 1127 38.4306 853.714 33 767 204Z" fill="#4B8BFF" fill-rule="evenodd"/><path d="M458.689 1.00003 388 116 673 64.2653 458.689 1.00003Z" fill="#4B8BFF" fill-rule="evenodd"/><path d="M9.99997 73.2517 387.702 117 459 2.00007 9.99997 73.2517Z" fill="#9BBFFF" fill-rule="evenodd"/><path d="M1007 259 1383.9 495 1829 453.718 1007 259Z" fill="#0040B2" fill-rule="evenodd"/><path d="M760 202 1373.22 347 1511 206.555 760 202Z" fill="#518FFF" fill-rule="evenodd"/><path d="M1009 260 937 470.362 1388 496 1009 260Z" fill="#377EFF" fill-rule="evenodd"/><path d="M549.896 221.202 544 214 602.955 523 939 471.936 549.896 221.202Z" fill="#377EFF" fill-rule="evenodd"/><path d="M764 202.733 1063.7 205 1125 38.0002 764 202.733Z" fill="#9DC0FF" fill-rule="evenodd"/><path d="M1372 346 1879 208.032 1510.69 205 1372 346Z" fill="#97BCFF" fill-rule="evenodd"/><path d="M766.11 206 385 116.1 854 33 766.11 206Z" fill="#9BBFFF" fill-rule="evenodd"/><path d="M1369 345.956 1830.08 454 1877 209 1369 345.956Z" fill="#0054EA" fill-rule="evenodd"/><path d="M1062 205.206 1673 209 1125.6 36.0001 1062 205.206Z" fill="#377EFF" fill-rule="evenodd"/></g></svg>